<?xml version="1.0" encoding="utf-8"?>
<!-- Generator: Adobe Illustrator 21.0.0, SVG Export Plug-In . SVG Version: 6.00 Build 0)  -->
<svg version="1.1" id="Слой_1" xmlns="http://www.w3.org/2000/svg" xmlns:xlink="http://www.w3.org/1999/xlink" x="0px" y="0px"
	 viewBox="0 0 436.2 150.1" style="enable-background:new 0 0 436.2 150.1;" xml:space="preserve">
<style type="text/css">
	.st0{fill:#FFFFFF;}
	.st1{fill-rule:evenodd;clip-rule:evenodd;fill:#FFFFFF;}
</style>
<g>
	<path class="st0" d="M405.4,150.1H12.7c-7,0-12.7-5.7-12.7-12.7V31.8c0-7,5.7-12.7,12.7-12.7h87.7v5.4H12.7c-4.1,0-7.3,3.3-7.3,7.3
		v105.6c0,4,3.3,7.3,7.3,7.3h392.7c4,0,7.3-3.3,7.3-7.3V31.8c0-4-3.3-7.3-7.3-7.3H173.9v-5.4h231.5c7,0,12.7,5.7,12.7,12.7v105.6
		C418.1,144.4,412.4,150.1,405.4,150.1z"/>
	<g>
		<g>
			<path class="st1" d="M58.5,77c1.3,0,2.6-1.3,4.1-4C69,61.9,75.2,50.8,81.5,39.6c2.7-4.7,7.8-6.8,12.7-4.8
				c1.3,0.6,2.6,2.9,2.6,4.4C97,56.2,96.9,73.2,97,90.1c0,4.6-3.1,4.5-6.4,4.6c-3.3,0-6-0.3-6-4.6c0-5.7,0.1-11.5-0.1-17.2
				c-0.1-1.6,0.3-4.7-1.6-4.7c-1.9,0-3.4,1.7-4.3,3.1c-3.8,6.1-7.2,12.5-10.8,18.7c-2,3.5-5.6,5.2-9.3,5.2 M58.5,77
				c-1.3,0-2.6-1.3-4.1-4C48,61.9,41.8,50.8,35.5,39.6c-2.7-4.7-7.8-6.8-12.7-4.8c-1.3,0.6-2.6,2.9-2.6,4.4
				C20,56.2,20.1,73.2,20,90.1c0,4.6,3.1,4.5,6.4,4.6c3.3,0,6-0.3,6-4.6c0-5.7-0.1-11.5,0.1-17.2c0.1-1.6-0.3-4.7,1.6-4.7
				c1.9,0,3.4,1.7,4.3,3.1c3.8,6.1,7.2,12.5,10.8,18.7c2,3.5,5.6,5.2,9.3,5.2"/>
			<path class="st1" d="M137.5,94.9c-4.5-0.3-9.2-0.1-13.6-1c-15.4-3-24.9-16.5-23.4-32.9c1.3-14.8,14-26.4,29.1-26.4
				c7.8,0,15.7-0.4,23.3,0.9c15,2.7,24.2,16.9,22.6,33c-1.4,14.1-14.4,25.9-28.7,26.1c-3.1,0-6.2,0-9.3,0
				C137.6,94.7,137.6,94.8,137.5,94.9z M130.7,47.1c-9.5,0.7-17.2,8-17.8,16.6c-0.5,8.4,5.9,16.7,15.5,18c7,0.9,14.4,0.7,21.5-0.4
				c6.7-1,10.9-6,12.8-12.6c1.8-6.1-0.3-11.2-4.5-15.7c-4.3-4.6-9.5-5.8-15.1-5.9L130.7,47.1z"/>
			<path class="st1" d="M398.3,64.5c0,8,0,15.9,0,23.9c0,5.5-0.7,6-6,6.3c-4.8,0.3-8.3-1.5-11.7-4.8c-11-10.7-22.1-21.1-33.3-31.6
				c-1.1-1-2.6-1.9-4.5-1.9c-1.9,0-1.7,3.1-1.8,4.7c-0.2,9.3-0.1,18.6-0.1,27.8c0,5-0.9,5.7-6.1,5.7c-5.4,0-6.2-0.7-6.2-5.6
				c0-16.3,0-32.7-0.1-49c0-4,1.5-5.4,5.5-5.6c5.1-0.3,8.9,1.5,12.6,5c10.7,10.5,21.7,20.8,32.7,31c1.2,1.2,3,2.7,4.9,2.7
				c1.9,0,1.8-3.9,1.9-5.6c0.2-9.1,0.1-18.3,0.1-27.4c0-4.9,0.9-5.6,6.2-5.6c5.3,0,6.1,0.7,6.1,5.7
				C398.4,48.3,398.3,56.4,398.3,64.5z"/>
			<path class="st1" d="M226.3,34.6c6,0,12.1,0,18.1,0c4.8,0,5.4,0.9,5.5,6.3c0.1,3.9-0.9,6.1-5.4,6.1c-10.9-0.1-21.8,0-32.7,0
				c-6.4,0-11.8,2.4-15.7,7.5c-7.5,9.7-2.6,24.6,9.7,26.7c8.9,1.5,18.1,0.9,27.2,0.9c3.5,0,4.4-2.9,4.5-6c0-5.3,0.2-10.6,0-15.9
				c-0.1-4.4,2.5-5.1,5.9-5.1c3.4,0,6.5,0.2,6.5,5c-0.1,9.9-0.1,19.7,0,29.6c0,3.6-1.6,5-5.1,5c-12.1-0.1-24.1,0.1-36.2-0.1
				c-15.8-0.1-28.4-13.2-28.5-29.4c-0.1-17,12-30.2,28.1-30.6C214.2,34.5,220.2,34.6,226.3,34.6z"/>
			<path class="st1" d="M289.1,34.6c9.9,0,19.7,0,29.6,0c4.7,0,5.3,0.9,5.5,6.4c0.1,3.9-1,6.1-5.4,6c-19.7-0.1-39.5-0.1-59.2,0
				c-4.6,0-5.3-2.4-5.3-6.2c0-3.7,0.6-6.3,5.2-6.2C269.3,34.7,279.2,34.6,289.1,34.6z"/>
			<path class="st1" d="M288.8,67.3c-9.6,0-19.1,0-28.7,0c-5,0-5.7-0.8-5.7-6c0-5.4,0.7-6.3,5.5-6.3c19.6,0,39.2,0,58.7,0
				c4.8,0,5.5,0.9,5.5,6.3c0,5.2-0.8,6-5.7,6.1C308.5,67.3,298.6,67.3,288.8,67.3z"/>
			<path class="st1" d="M289.1,94.6c-9.7,0-19.4,0-29.2,0c-4.9,0-5.6-0.8-5.6-6.2c0-5.3,0.7-6.1,5.6-6.1c19.6,0,39.2,0,58.8,0
				c4.7,0,5.3,1,5.4,6.4c0.1,4-1.1,6.1-5.5,6C308.8,94.5,298.9,94.6,289.1,94.6z"/>
		</g>
		<path class="st1" d="M149.4,16.2L149.4,16.2c-3.2,0-5.7,2.6-5.7,5.7l0,0c0,3.2,2.6,5.7,5.7,5.7l0,0h2.2l0,0c3.2,0,5.7-2.6,5.7-5.7
			l0,0c0-3.2-2.6-5.7-5.7-5.7l0,0H149.4"/>
		<path class="st1" d="M124.5,16.2L124.5,16.2c-3.2,0-5.7,2.6-5.7,5.7l0,0c0,3.2,2.6,5.7,5.7,5.7l0,0h2.2l0,0c3.2,0,5.7-2.6,5.7-5.7
			l0,0c0-3.2-2.6-5.7-5.7-5.7l0,0H124.5"/>
	</g>
	<rect x="20" y="125.5" class="st1" width="89.3" height="4.4"/>
	<rect x="309" y="125.5" class="st1" width="89.3" height="4.4"/>
	<rect x="20" y="117.6" class="st1" width="89.3" height="1.8"/>
	<rect x="309" y="117.6" class="st1" width="89.3" height="1.8"/>
	<g>
		<g>
			<path class="st0" d="M423.3,4.5c0.7-0.1,1.7-0.2,2.7-0.2c1.5,0,2.4,0.3,3.1,0.9c0.5,0.5,0.8,1.2,0.8,2c0,1.4-0.9,2.4-2,2.7v0
				c0.8,0.3,1.3,1.1,1.6,2.2c0.4,1.5,0.6,2.5,0.8,2.9h-1.4c-0.2-0.3-0.4-1.2-0.7-2.6c-0.3-1.5-0.9-2-2.2-2.1h-1.3v4.7h-1.4V4.5z
				 M424.7,9.4h1.4c1.5,0,2.4-0.8,2.4-2c0-1.4-1-2-2.5-2c-0.7,0-1.1,0.1-1.4,0.1V9.4z"/>
		</g>
		<path class="st0" d="M436.2,10.1c0,5.6-4.5,10.1-10.1,10.1c-5.6,0-10.1-4.5-10.1-10.1C416,4.5,420.5,0,426.1,0
			C431.7,0,436.2,4.5,436.2,10.1z M426.1,1.3c-4.8,0-8.8,3.9-8.8,8.8c0,4.8,3.9,8.8,8.8,8.8c4.8,0,8.8-3.9,8.8-8.8
			C434.9,5.3,431,1.3,426.1,1.3z"/>
	</g>
	<g>
		<path class="st0" d="M137.3,128.5c0.1,0.2,0.1,0.4,0.1,0.5c0,0.4-0.1,0.7-0.4,0.9c-0.3,0.2-0.6,0.3-0.9,0.3c-0.6,0-1-0.3-1.2-0.8
			l-1.3-3.2h-10.3l-1.2,3.2c-0.2,0.5-0.6,0.8-1.2,0.8c-0.4,0-0.7-0.1-0.9-0.4c-0.3-0.2-0.4-0.5-0.4-0.9c0-0.2,0-0.3,0.1-0.5l7.1-19
			c0.3-0.7,0.8-1,1.5-1c0.8,0,1.3,0.3,1.6,1L137.3,128.5z M132.6,123.5l-4.3-10.9l-4,10.9H132.6z"/>
		<path class="st0" d="M155.2,123c0,4.6-2.4,7-7.1,7.4c-2,0.1-3.7-0.4-5.3-1.6c-1.7-1.4-2.6-3.2-2.6-5.6v-13.2
			c0-0.9,0.4-1.4,1.3-1.4c0.9,0,1.3,0.5,1.3,1.4v13.2c0,1.5,0.6,2.7,1.7,3.6c1,0.8,2.1,1.1,3.4,1c3.1-0.2,4.7-1.8,4.7-4.8v-13.1
			c0-0.9,0.4-1.4,1.3-1.4c0.8,0,1.3,0.5,1.3,1.4V123z"/>
		<path class="st0" d="M173.6,111.4H168v18.4c0,0.9-0.4,1.4-1.3,1.4c-0.9,0-1.4-0.5-1.4-1.4v-18.4h-5.6c-0.9,0-1.4-0.5-1.4-1.4
			c0-0.9,0.5-1.4,1.4-1.4h13.8c0.9,0,1.4,0.5,1.4,1.4C175,110.9,174.5,111.4,173.6,111.4z"/>
		<path class="st0" d="M194.6,119.5c0,2.9-0.7,5.4-2.1,7.5c-1.5,2.2-3.5,3.4-5.9,3.4c-2.4,0-4.4-1.1-5.9-3.4
			c-1.5-2.1-2.2-4.6-2.2-7.5c0-2.9,0.7-5.4,2.1-7.6c1.5-2.3,3.4-3.5,5.7-3.5c2.5,0,4.6,1.2,6.2,3.5
			C193.9,114.1,194.6,116.6,194.6,119.5z M192,119.5c0-2.2-0.5-4.1-1.4-5.7c-1.1-1.8-2.5-2.7-4.4-2.7c-1.7,0-3,0.9-4,2.7
			c-0.8,1.5-1.3,3.5-1.3,5.7c0,2.2,0.5,4.1,1.4,5.6c1,1.7,2.4,2.6,4.2,2.6s3.1-0.9,4.2-2.6C191.6,123.6,192,121.7,192,119.5z"/>
	</g>
	<g>
		<path class="st0" d="M223,114.4c0,1.7-0.4,3-1.3,4c-0.9,1-2.1,1.5-3.7,1.5h-6.1v9c0,0.9-0.4,1.3-1.3,1.3c-0.9,0-1.3-0.5-1.3-1.4
			v-20.3h8.2c1.9,0,3.3,0.5,4.2,1.6C222.6,111.2,223,112.6,223,114.4z M220.5,114.3c0-2.1-1-3.1-3-3.1h-5.6v6h6.1
			C219.7,117.2,220.5,116.3,220.5,114.3z"/>
		<path class="st0" d="M243.5,128.5c0.1,0.2,0.1,0.4,0.1,0.5c0,0.4-0.1,0.7-0.4,0.9c-0.3,0.2-0.6,0.3-0.9,0.3c-0.6,0-1-0.3-1.2-0.8
			l-1.3-3.2h-10.3l-1.2,3.2c-0.2,0.5-0.6,0.8-1.2,0.8c-0.4,0-0.7-0.1-0.9-0.4c-0.3-0.2-0.4-0.5-0.4-0.9c0-0.2,0-0.3,0.1-0.5l7.1-19
			c0.3-0.7,0.8-1,1.5-1c0.8,0,1.3,0.3,1.6,1L243.5,128.5z M238.8,123.5l-4.3-10.9l-4,10.9H238.8z"/>
		<path class="st0" d="M261.7,114.8c0,2.2-0.7,3.8-2.1,4.9c-0.9,0.7-1.9,1.1-2.8,1.1l-0.3,0l5,7.2c0.2,0.3,0.2,0.5,0.2,0.8
			c0,0.4-0.1,0.7-0.4,0.9c-0.3,0.3-0.6,0.4-0.9,0.4c-0.4,0-0.7-0.2-1-0.6l-6.2-8.8h-4.1v8c0,0.9-0.4,1.4-1.3,1.4
			c-0.9,0-1.3-0.4-1.3-1.4v-20.2h9.1c1.7,0,3.1,0.5,4.2,1.6C261.1,111.4,261.7,113,261.7,114.8z M259.2,114.8c0-1.1-0.4-2-1.1-2.7
			c-0.7-0.6-1.5-0.9-2.5-0.9h-6.5v6.9h7.6c0.5,0,0.9-0.2,1.4-0.7C258.8,116.9,259.2,116,259.2,114.8z"/>
		<path class="st0" d="M280.3,111.4h-5.6v18.4c0,0.9-0.5,1.4-1.3,1.4c-0.9,0-1.4-0.5-1.4-1.4v-18.4h-5.6c-0.9,0-1.4-0.5-1.4-1.4
			c0-0.9,0.5-1.4,1.4-1.4h13.8c0.9,0,1.4,0.5,1.4,1.4C281.7,110.9,281.2,111.4,280.3,111.4z"/>
		<path class="st0" d="M299.5,124.3c0,4.1-2.5,6.1-7.6,6.1c-3,0-5.4-1.5-7-4.5c-0.1-0.2-0.2-0.4-0.2-0.7c0-0.4,0.1-0.8,0.4-1.1
			c0.3-0.3,0.6-0.5,1-0.5c0.4,0,0.7,0.2,0.9,0.7c1,2.3,2.7,3.4,4.9,3.4c3.3,0,5-1.1,5-3.4c0-1.2-1-2.2-3.1-3
			c-3.8-1.6-5.7-2.4-5.8-2.4c-2.1-1.2-3.1-2.9-3.1-4.9c0-1.9,0.7-3.4,2.1-4.4c1.1-0.8,2.6-1.2,4.5-1.3c1.7-0.1,3.2,0.3,4.4,1
			c1.3,0.8,2.3,2,2.7,3.5c0,0.1,0.1,0.3,0.1,0.4c0,0.4-0.1,0.6-0.4,0.9c-0.3,0.2-0.6,0.3-0.9,0.3c-0.6,0-1-0.3-1.2-0.9
			c-0.3-0.9-0.8-1.5-1.7-2c-0.9-0.5-1.8-0.7-2.9-0.7c-2.8,0.1-4.1,1.1-4.1,3c0,1,0.5,1.8,1.5,2.5c0.7,0.5,1.8,1,3.5,1.6
			c2.4,0.9,4,1.6,4.8,2.1C298.8,121.1,299.5,122.5,299.5,124.3z"/>
	</g>
	<g>
		<g>
			<path class="st1" d="M58.5,77c1.3,0,2.6-1.3,4.1-4C69,61.9,75.2,50.8,81.5,39.6c2.7-4.7,7.8-6.8,12.7-4.8
				c1.3,0.6,2.6,2.9,2.6,4.4C97,56.2,96.9,73.2,97,90.1c0,4.6-3.1,4.5-6.4,4.6c-3.3,0-6-0.3-6-4.6c0-5.7,0.1-11.5-0.1-17.2
				c-0.1-1.6,0.3-4.7-1.6-4.7c-1.9,0-3.4,1.7-4.3,3.1c-3.8,6.1-7.2,12.5-10.8,18.7c-2,3.5-5.6,5.2-9.3,5.2 M58.5,77
				c-1.3,0-2.6-1.3-4.1-4C48,61.9,41.8,50.8,35.5,39.6c-2.7-4.7-7.8-6.8-12.7-4.8c-1.3,0.6-2.6,2.9-2.6,4.4
				C20,56.2,20.1,73.2,20,90.1c0,4.6,3.1,4.5,6.4,4.6c3.3,0,6-0.3,6-4.6c0-5.7-0.1-11.5,0.1-17.2c0.1-1.6-0.3-4.7,1.6-4.7
				c1.9,0,3.4,1.7,4.3,3.1c3.8,6.1,7.2,12.5,10.8,18.7c2,3.5,5.6,5.2,9.3,5.2"/>
			<path class="st1" d="M137.5,94.9c-4.5-0.3-9.2-0.1-13.6-1c-15.4-3-24.9-16.5-23.4-32.9c1.3-14.8,14-26.4,29.1-26.4
				c7.8,0,15.7-0.4,23.3,0.9c15,2.7,24.2,16.9,22.6,33c-1.4,14.1-14.4,25.9-28.7,26.1c-3.1,0-6.2,0-9.3,0
				C137.6,94.7,137.6,94.8,137.5,94.9z M130.7,47.1c-9.5,0.7-17.2,8-17.8,16.6c-0.5,8.4,5.9,16.7,15.5,18c7,0.9,14.4,0.7,21.5-0.4
				c6.7-1,10.9-6,12.8-12.6c1.8-6.1-0.3-11.2-4.5-15.7c-4.3-4.6-9.5-5.8-15.1-5.9L130.7,47.1z"/>
			<path class="st1" d="M398.3,64.5c0,8,0,15.9,0,23.9c0,5.5-0.7,6-6,6.3c-4.8,0.3-8.3-1.5-11.7-4.8c-11-10.7-22.1-21.1-33.3-31.6
				c-1.1-1-2.6-1.9-4.5-1.9c-1.9,0-1.7,3.1-1.8,4.7c-0.2,9.3-0.1,18.6-0.1,27.8c0,5-0.9,5.7-6.1,5.7c-5.4,0-6.2-0.7-6.2-5.6
				c0-16.3,0-32.7-0.1-49c0-4,1.5-5.4,5.5-5.6c5.1-0.3,8.9,1.5,12.6,5c10.7,10.5,21.7,20.8,32.7,31c1.2,1.2,3,2.7,4.9,2.7
				c1.9,0,1.8-3.9,1.9-5.6c0.2-9.1,0.1-18.3,0.1-27.4c0-4.9,0.9-5.6,6.2-5.6c5.3,0,6.1,0.7,6.1,5.7
				C398.4,48.3,398.3,56.4,398.3,64.5z"/>
			<path class="st1" d="M226.3,34.6c6,0,12.1,0,18.1,0c4.8,0,5.4,0.9,5.5,6.3c0.1,3.9-0.9,6.1-5.4,6.1c-10.9-0.1-21.8,0-32.7,0
				c-6.4,0-11.8,2.4-15.7,7.5c-7.5,9.7-2.6,24.6,9.7,26.7c8.9,1.5,18.1,0.9,27.2,0.9c3.5,0,4.4-2.9,4.5-6c0-5.3,0.2-10.6,0-15.9
				c-0.1-4.4,2.5-5.1,5.9-5.1c3.4,0,6.5,0.2,6.5,5c-0.1,9.9-0.1,19.7,0,29.6c0,3.6-1.6,5-5.1,5c-12.1-0.1-24.1,0.1-36.2-0.1
				c-15.8-0.1-28.4-13.2-28.5-29.4c-0.1-17,12-30.2,28.1-30.6C214.2,34.5,220.2,34.6,226.3,34.6z"/>
			<path class="st1" d="M289.1,34.6c9.9,0,19.7,0,29.6,0c4.7,0,5.3,0.9,5.5,6.4c0.1,3.9-1,6.1-5.4,6c-19.7-0.1-39.5-0.1-59.2,0
				c-4.6,0-5.3-2.4-5.3-6.2c0-3.7,0.6-6.3,5.2-6.2C269.3,34.7,279.2,34.6,289.1,34.6z"/>
			<path class="st1" d="M288.8,67.3c-9.6,0-19.1,0-28.7,0c-5,0-5.7-0.8-5.7-6c0-5.4,0.7-6.3,5.5-6.3c19.6,0,39.2,0,58.7,0
				c4.8,0,5.5,0.9,5.5,6.3c0,5.2-0.8,6-5.7,6.1C308.5,67.3,298.6,67.3,288.8,67.3z"/>
			<path class="st1" d="M289.1,94.6c-9.7,0-19.4,0-29.2,0c-4.9,0-5.6-0.8-5.6-6.2c0-5.3,0.7-6.1,5.6-6.1c19.6,0,39.2,0,58.8,0
				c4.7,0,5.3,1,5.4,6.4c0.1,4-1.1,6.1-5.5,6C308.8,94.5,298.9,94.6,289.1,94.6z"/>
		</g>
		<path class="st1" d="M149.4,16.2L149.4,16.2c-3.2,0-5.7,2.6-5.7,5.7l0,0c0,3.2,2.6,5.7,5.7,5.7l0,0h2.2l0,0c3.2,0,5.7-2.6,5.7-5.7
			l0,0c0-3.2-2.6-5.7-5.7-5.7l0,0H149.4"/>
		<path class="st1" d="M124.5,16.2L124.5,16.2c-3.2,0-5.7,2.6-5.7,5.7l0,0c0,3.2,2.6,5.7,5.7,5.7l0,0h2.2l0,0c3.2,0,5.7-2.6,5.7-5.7
			l0,0c0-3.2-2.6-5.7-5.7-5.7l0,0H124.5"/>
	</g>
</g>
</svg>
